<svg xmlns="http://www.w3.org/2000/svg" viewBox="0 0 480 320" role="img" aria-label="dolly, a two-headed sheep">
  <style>
    .line { fill: none; stroke: #1c1c1c; stroke-linecap: round; stroke-linejoin: round; }
    .dot { fill: #1c1c1c; }
    @media (prefers-color-scheme: dark) {
      .line { stroke: #e6e6e6; }
      .dot { fill: #e6e6e6; }
    }
  </style>
  <path class="line" stroke-width="12" d="M 240 54 A 62 62 0 0 1 348 82 A 26 26 0 0 1 378 122 A 18 18 0 0 0 404 130 L 446 150 A 30 30 0 0 1 448 206 L 396 216 A 46 46 0 0 1 330 262 A 54 54 0 0 1 240 276 A 54 54 0 0 1 150 262 A 46 46 0 0 1 84 216 L 32 206 A 30 30 0 0 1 34 150 L 76 130 A 18 18 0 0 0 102 122 A 26 26 0 0 1 132 82 A 62 62 0 0 1 240 54 Z"/>
  <path class="line" stroke-width="12" d="M 408.2 132 L 410.2 180 A 9.8 9.8 0 0 0 429.5 183.2 L 427.5 141.2"/>
  <path class="line" stroke-width="12" d="M 71.8 132 L 69.8 180 A 9.8 9.8 0 0 1 50.5 183.2 L 52.5 141.2"/>
  <circle class="dot" cx="446" cy="180" r="8"/>
  <circle class="dot" cx="34" cy="180" r="8"/>
</svg>
